<svg width="136" height="136" viewBox="0 0 136 136" fill="none" xmlns="http://www.w3.org/2000/svg">
<path d="M102 21.25H34C26.9584 21.25 21.25 26.9584 21.25 34V102C21.25 109.042 26.9584 114.75 34 114.75H102C109.042 114.75 114.75 109.042 114.75 102V34C114.75 26.9584 109.042 21.25 102 21.25Z" stroke="#C3C3C3" stroke-width="9" stroke-linejoin="round"/>
<path d="M93.5 38.25H42.5C40.1528 38.25 38.25 40.1528 38.25 42.5V93.5C38.25 95.8472 40.1528 97.75 42.5 97.75H93.5C95.8472 97.75 97.75 95.8472 97.75 93.5V42.5C97.75 40.1528 95.8472 38.25 93.5 38.25Z" stroke="#C3C3C3" stroke-width="9" stroke-linejoin="round"/>
<path d="M68 21.25V12.75M89.25 21.25V12.75M46.75 21.25V12.75M68 123.25V114.75M89.25 123.25V114.75M46.75 123.25V114.75M114.75 68H123.25M114.75 89.25H123.25M114.75 46.75H123.25M12.75 68H21.25M12.75 89.25H21.25M12.75 46.75H21.25" stroke="#C3C3C3" stroke-width="9" stroke-linecap="round" stroke-linejoin="round"/>
</svg>
