<svg width="140" height="140" viewBox="0 0 140 140" fill="none" xmlns="http://www.w3.org/2000/svg">
<path d="M85.2833 15.5284C86.3905 15.8381 87.4259 16.3631 88.3301 17.0732C89.2343 17.7833 89.9897 18.6647 90.5531 19.6669C91.1165 20.6692 91.4769 21.7726 91.6136 22.9142C91.7504 24.0558 91.6608 25.2131 91.35 26.32L65.5025 118.411C64.8759 120.646 63.3872 122.54 61.364 123.677C59.3407 124.814 56.9485 125.101 54.7137 124.475C52.479 123.848 50.5846 122.359 49.4474 120.336C48.3103 118.313 48.0234 115.921 48.65 113.686L74.4975 21.5834C74.8079 20.4767 75.3333 19.442 76.0437 18.5384C76.7541 17.6348 77.6355 16.88 78.6377 16.3172C79.6398 15.7544 80.7431 15.3945 81.8844 15.2581C83.0256 15.1218 84.1826 15.2116 85.2892 15.5225L85.2833 15.5284ZM44.1 39.0659C45.7386 40.7065 46.659 42.9304 46.659 45.2492C46.659 47.5679 45.7386 49.7919 44.1 51.4325L25.55 70L44.1117 88.5617C45.7523 90.2032 46.6738 92.4292 46.6732 94.75C46.6727 97.0708 45.7502 99.2964 44.1087 100.937C42.4673 102.578 40.2413 103.499 37.9204 103.499C35.5996 103.498 33.374 102.576 31.7333 100.934L6.98249 76.1834C5.3439 74.5427 4.42352 72.3188 4.42352 70C4.42352 67.6813 5.3439 65.4573 6.98249 63.8167L31.7275 39.0659C32.5401 38.2528 33.5049 37.6077 34.5669 37.1677C35.6288 36.7276 36.7671 36.5011 37.9167 36.5011C39.0662 36.5011 40.2045 36.7276 41.2664 37.1677C42.3284 37.6077 43.2874 38.2528 44.1 39.0659ZM95.9 51.4325C95.0403 50.6315 94.3508 49.6655 93.8725 48.5921C93.3943 47.5188 93.1372 46.3602 93.1164 45.1853C93.0957 44.0104 93.3118 42.8434 93.7519 41.7539C94.192 40.6644 94.847 39.6746 95.6779 38.8437C96.5088 38.0129 97.4985 37.3578 98.588 36.9178C99.6775 36.4777 100.845 36.2616 102.019 36.2823C103.194 36.303 104.353 36.5602 105.426 37.0384C106.5 37.5167 107.466 38.2062 108.267 39.0659L133.017 63.8109C134.658 65.4517 135.579 67.6769 135.579 69.9971C135.579 72.3173 134.658 74.5425 133.017 76.1834L108.272 100.934C107.46 101.747 106.496 102.392 105.434 102.832C104.372 103.272 103.235 103.498 102.085 103.499C100.936 103.499 99.7983 103.273 98.7365 102.833C97.6747 102.394 96.7098 101.749 95.8971 100.937C95.0843 100.125 94.4395 99.1602 93.9995 98.0986C93.5595 97.037 93.3329 95.8992 93.3326 94.75C93.3323 93.6008 93.5584 92.4629 93.9979 91.4011C94.4374 90.3393 95.0818 89.3745 95.8941 88.5617L114.456 70L95.9 51.4325Z" fill="#C3C3C3"/>
</svg>
