<svg width="414" height="193" viewBox="0 0 414 193" fill="none" xmlns="http://www.w3.org/2000/svg">
<path d="M189.024 71.576C186.336 71.576 183.76 71.224 181.296 70.52C178.832 69.784 176.848 68.84 175.344 67.688L177.984 61.832C179.424 62.856 181.12 63.704 183.072 64.376C185.056 65.016 187.056 65.336 189.072 65.336C190.608 65.336 191.84 65.192 192.768 64.904C193.728 64.584 194.432 64.152 194.88 63.608C195.328 63.064 195.552 62.44 195.552 61.736C195.552 60.84 195.2 60.136 194.496 59.624C193.792 59.08 192.864 58.648 191.712 58.328C190.56 57.976 189.28 57.656 187.872 57.368C186.496 57.048 185.104 56.664 183.696 56.216C182.32 55.768 181.056 55.192 179.904 54.488C178.752 53.784 177.808 52.856 177.072 51.704C176.368 50.552 176.016 49.08 176.016 47.288C176.016 45.368 176.528 43.624 177.552 42.056C178.608 40.456 180.176 39.192 182.256 38.264C184.368 37.304 187.008 36.824 190.176 36.824C192.288 36.824 194.368 37.08 196.416 37.592C198.464 38.072 200.272 38.808 201.84 39.8L199.44 45.704C197.872 44.808 196.304 44.152 194.736 43.736C193.168 43.288 191.632 43.064 190.128 43.064C188.624 43.064 187.392 43.24 186.432 43.592C185.472 43.944 184.784 44.408 184.368 44.984C183.952 45.528 183.744 46.168 183.744 46.904C183.744 47.768 184.096 48.472 184.8 49.016C185.504 49.528 186.432 49.944 187.584 50.264C188.736 50.584 190 50.904 191.376 51.224C192.784 51.544 194.176 51.912 195.552 52.328C196.96 52.744 198.24 53.304 199.392 54.008C200.544 54.712 201.472 55.64 202.176 56.792C202.912 57.944 203.28 59.4 203.28 61.16C203.28 63.048 202.752 64.776 201.696 66.344C200.64 67.912 199.056 69.176 196.944 70.136C194.864 71.096 192.224 71.576 189.024 71.576ZM220.353 71.384C217.601 71.384 215.153 70.808 213.009 69.656C210.897 68.504 209.217 66.936 207.969 64.952C206.753 62.936 206.145 60.648 206.145 58.088C206.145 55.496 206.753 53.208 207.969 51.224C209.217 49.208 210.897 47.64 213.009 46.52C215.153 45.368 217.601 44.792 220.353 44.792C223.073 44.792 225.505 45.368 227.649 46.52C229.793 47.64 231.473 49.192 232.689 51.176C233.905 53.16 234.513 55.464 234.513 58.088C234.513 60.648 233.905 62.936 232.689 64.952C231.473 66.936 229.793 68.504 227.649 69.656C225.505 70.808 223.073 71.384 220.353 71.384ZM220.353 65.24C221.601 65.24 222.721 64.952 223.713 64.376C224.705 63.8 225.489 62.984 226.065 61.928C226.641 60.84 226.929 59.56 226.929 58.088C226.929 56.584 226.641 55.304 226.065 54.248C225.489 53.192 224.705 52.376 223.713 51.8C222.721 51.224 221.601 50.936 220.353 50.936C219.105 50.936 217.985 51.224 216.993 51.8C216.001 52.376 215.201 53.192 214.593 54.248C214.017 55.304 213.729 56.584 213.729 58.088C213.729 59.56 214.017 60.84 214.593 61.928C215.201 62.984 216.001 63.8 216.993 64.376C217.985 64.952 219.105 65.24 220.353 65.24ZM240.431 71V44.6C240.431 41.688 241.295 39.368 243.023 37.64C244.751 35.88 247.215 35 250.415 35C251.503 35 252.543 35.112 253.535 35.336C254.559 35.56 255.423 35.912 256.127 36.392L254.159 41.816C253.743 41.528 253.279 41.304 252.767 41.144C252.255 40.984 251.711 40.904 251.135 40.904C250.047 40.904 249.199 41.224 248.591 41.864C248.015 42.472 247.727 43.4 247.727 44.648V47.048L247.919 50.264V71H240.431ZM236.447 51.512V45.752H254.351V51.512H236.447ZM268.641 71.384C265.601 71.384 263.233 70.616 261.537 69.08C259.841 67.512 258.993 65.192 258.993 62.12V39.464H266.481V62.024C266.481 63.112 266.769 63.96 267.345 64.568C267.921 65.144 268.705 65.432 269.697 65.432C270.881 65.432 271.889 65.112 272.721 64.472L274.737 69.752C273.969 70.296 273.041 70.712 271.953 71C270.897 71.256 269.793 71.384 268.641 71.384ZM255.009 51.512V45.752H272.913V51.512H255.009ZM308.374 71V65.96L307.894 64.856V55.832C307.894 54.232 307.398 52.984 306.406 52.088C305.446 51.192 303.958 50.744 301.942 50.744C300.566 50.744 299.206 50.968 297.862 51.416C296.55 51.832 295.43 52.408 294.502 53.144L291.814 47.912C293.222 46.92 294.918 46.152 296.902 45.608C298.886 45.064 300.902 44.792 302.95 44.792C306.886 44.792 309.942 45.72 312.118 47.576C314.294 49.432 315.382 52.328 315.382 56.264V71H308.374ZM300.502 71.384C298.486 71.384 296.758 71.048 295.318 70.376C293.878 69.672 292.774 68.728 292.006 67.544C291.238 66.36 290.854 65.032 290.854 63.56C290.854 62.024 291.222 60.68 291.958 59.528C292.726 58.376 293.926 57.48 295.558 56.84C297.19 56.168 299.318 55.832 301.942 55.832H308.806V60.2H302.758C300.998 60.2 299.782 60.488 299.11 61.064C298.47 61.64 298.15 62.36 298.15 63.224C298.15 64.184 298.518 64.952 299.254 65.528C300.022 66.072 301.062 66.344 302.374 66.344C303.622 66.344 304.742 66.056 305.734 65.48C306.726 64.872 307.446 63.992 307.894 62.84L309.046 66.296C308.502 67.96 307.51 69.224 306.07 70.088C304.63 70.952 302.774 71.384 300.502 71.384ZM337.855 44.792C339.903 44.792 341.727 45.208 343.327 46.04C344.959 46.84 346.239 48.088 347.167 49.784C348.095 51.448 348.559 53.592 348.559 56.216V71H341.071V57.368C341.071 55.288 340.607 53.752 339.679 52.76C338.783 51.768 337.503 51.272 335.839 51.272C334.655 51.272 333.583 51.528 332.623 52.04C331.695 52.52 330.959 53.272 330.415 54.296C329.903 55.32 329.647 56.632 329.647 58.232V71H322.159V45.176H329.311V52.328L327.967 50.168C328.895 48.44 330.223 47.112 331.951 46.184C333.679 45.256 335.647 44.792 337.855 44.792ZM366.622 71.384C364.19 71.384 361.998 70.84 360.046 69.752C358.094 68.632 356.542 67.08 355.39 65.096C354.27 63.112 353.71 60.776 353.71 58.088C353.71 55.368 354.27 53.016 355.39 51.032C356.542 49.048 358.094 47.512 360.046 46.424C361.998 45.336 364.19 44.792 366.622 44.792C368.798 44.792 370.702 45.272 372.334 46.232C373.966 47.192 375.23 48.648 376.126 50.6C377.022 52.552 377.47 55.048 377.47 58.088C377.47 61.096 377.038 63.592 376.174 65.576C375.31 67.528 374.062 68.984 372.43 69.944C370.83 70.904 368.894 71.384 366.622 71.384ZM367.918 65.24C369.134 65.24 370.238 64.952 371.23 64.376C372.222 63.8 373.006 62.984 373.582 61.928C374.19 60.84 374.494 59.56 374.494 58.088C374.494 56.584 374.19 55.304 373.582 54.248C373.006 53.192 372.222 52.376 371.23 51.8C370.238 51.224 369.134 50.936 367.918 50.936C366.67 50.936 365.55 51.224 364.558 51.8C363.566 52.376 362.766 53.192 362.158 54.248C361.582 55.304 361.294 56.584 361.294 58.088C361.294 59.56 361.582 60.84 362.158 61.928C362.766 62.984 363.566 63.8 364.558 64.376C365.55 64.952 366.67 65.24 367.918 65.24ZM374.686 71V65.72L374.83 58.04L374.35 50.408V35.384H381.838V71H374.686ZM185.184 94.52H201.312V100.76H185.184V94.52ZM185.76 113H177.984V79.4H203.376V85.64H185.76V113ZM208.112 113V87.176H215.6V113H208.112ZM211.856 83.576C210.48 83.576 209.36 83.176 208.496 82.376C207.632 81.576 207.2 80.584 207.2 79.4C207.2 78.216 207.632 77.224 208.496 76.424C209.36 75.624 210.48 75.224 211.856 75.224C213.232 75.224 214.352 75.608 215.216 76.376C216.08 77.112 216.512 78.072 216.512 79.256C216.512 80.504 216.08 81.544 215.216 82.376C214.384 83.176 213.264 83.576 211.856 83.576ZM222.55 113V87.176H229.702V94.472L228.694 92.36C229.462 90.536 230.694 89.16 232.39 88.232C234.086 87.272 236.15 86.792 238.582 86.792V93.704C238.262 93.672 237.974 93.656 237.718 93.656C237.462 93.624 237.19 93.608 236.902 93.608C234.854 93.608 233.19 94.2 231.91 95.384C230.662 96.536 230.038 98.344 230.038 100.808V113H222.55ZM276.153 86.792C278.201 86.792 280.009 87.208 281.577 88.04C283.177 88.84 284.425 90.088 285.321 91.784C286.249 93.448 286.713 95.592 286.713 98.216V113H279.225V99.368C279.225 97.288 278.793 95.752 277.929 94.76C277.065 93.768 275.849 93.272 274.281 93.272C273.193 93.272 272.217 93.528 271.353 94.04C270.489 94.52 269.817 95.256 269.337 96.248C268.857 97.24 268.617 98.504 268.617 100.04V113H261.129V99.368C261.129 97.288 260.697 95.752 259.833 94.76C259.001 93.768 257.801 93.272 256.233 93.272C255.145 93.272 254.169 93.528 253.305 94.04C252.441 94.52 251.769 95.256 251.289 96.248C250.809 97.24 250.569 98.504 250.569 100.04V113H243.081V87.176H250.233V94.232L248.889 92.168C249.785 90.408 251.049 89.08 252.681 88.184C254.345 87.256 256.233 86.792 258.345 86.792C260.713 86.792 262.777 87.4 264.537 88.616C266.329 89.8 267.513 91.624 268.089 94.088L265.449 93.368C266.313 91.352 267.689 89.752 269.577 88.568C271.497 87.384 273.689 86.792 276.153 86.792ZM298.86 113L289.548 87.176H296.604L304.332 109.4H300.972L309.036 87.176H315.372L323.196 109.4H319.836L327.804 87.176H334.428L325.068 113H317.82L310.956 93.944H313.164L306.06 113H298.86ZM352.905 113V107.96L352.425 106.856V97.832C352.425 96.232 351.929 94.984 350.937 94.088C349.977 93.192 348.489 92.744 346.473 92.744C345.097 92.744 343.737 92.968 342.393 93.416C341.081 93.832 339.961 94.408 339.033 95.144L336.345 89.912C337.753 88.92 339.449 88.152 341.433 87.608C343.417 87.064 345.433 86.792 347.481 86.792C351.417 86.792 354.473 87.72 356.649 89.576C358.825 91.432 359.913 94.328 359.913 98.264V113H352.905ZM345.033 113.384C343.017 113.384 341.289 113.048 339.849 112.376C338.409 111.672 337.305 110.728 336.537 109.544C335.769 108.36 335.385 107.032 335.385 105.56C335.385 104.024 335.753 102.68 336.489 101.528C337.257 100.376 338.457 99.48 340.089 98.84C341.721 98.168 343.849 97.832 346.473 97.832H353.337V102.2H347.289C345.529 102.2 344.313 102.488 343.641 103.064C343.001 103.64 342.681 104.36 342.681 105.224C342.681 106.184 343.049 106.952 343.785 107.528C344.553 108.072 345.593 108.344 346.905 108.344C348.153 108.344 349.273 108.056 350.265 107.48C351.257 106.872 351.977 105.992 352.425 104.84L353.577 108.296C353.033 109.96 352.041 111.224 350.601 112.088C349.161 112.952 347.305 113.384 345.033 113.384ZM366.69 113V87.176H373.842V94.472L372.834 92.36C373.602 90.536 374.834 89.16 376.53 88.232C378.226 87.272 380.29 86.792 382.722 86.792V93.704C382.402 93.672 382.114 93.656 381.858 93.656C381.602 93.624 381.33 93.608 381.042 93.608C378.994 93.608 377.33 94.2 376.05 95.384C374.802 96.536 374.178 98.344 374.178 100.808V113H366.69ZM399.803 113.384C396.859 113.384 394.267 112.808 392.027 111.656C389.819 110.504 388.107 108.936 386.891 106.952C385.675 104.936 385.067 102.648 385.067 100.088C385.067 97.496 385.659 95.208 386.843 93.224C388.059 91.208 389.707 89.64 391.787 88.52C393.867 87.368 396.219 86.792 398.843 86.792C401.371 86.792 403.643 87.336 405.659 88.424C407.707 89.48 409.323 91.016 410.507 93.032C411.691 95.016 412.283 97.4 412.283 100.184C412.283 100.472 412.267 100.808 412.235 101.192C412.203 101.544 412.171 101.88 412.139 102.2H391.163V97.832H408.203L405.323 99.128C405.323 97.784 405.051 96.616 404.507 95.624C403.963 94.632 403.211 93.864 402.251 93.32C401.291 92.744 400.171 92.456 398.891 92.456C397.611 92.456 396.475 92.744 395.483 93.32C394.523 93.864 393.771 94.648 393.227 95.672C392.683 96.664 392.411 97.848 392.411 99.224V100.376C392.411 101.784 392.715 103.032 393.323 104.12C393.963 105.176 394.843 105.992 395.963 106.568C397.115 107.112 398.459 107.384 399.995 107.384C401.371 107.384 402.571 107.176 403.595 106.76C404.651 106.344 405.611 105.72 406.475 104.888L410.459 109.208C409.275 110.552 407.787 111.592 405.995 112.328C404.203 113.032 402.139 113.384 399.803 113.384Z" fill="#886403"/>
<path d="M189.024 155.576C186.336 155.576 183.76 155.224 181.296 154.52C178.832 153.784 176.848 152.84 175.344 151.688L177.984 145.832C179.424 146.856 181.12 147.704 183.072 148.376C185.056 149.016 187.056 149.336 189.072 149.336C190.608 149.336 191.84 149.192 192.768 148.904C193.728 148.584 194.432 148.152 194.88 147.608C195.328 147.064 195.552 146.44 195.552 145.736C195.552 144.84 195.2 144.136 194.496 143.624C193.792 143.08 192.864 142.648 191.712 142.328C190.56 141.976 189.28 141.656 187.872 141.368C186.496 141.048 185.104 140.664 183.696 140.216C182.32 139.768 181.056 139.192 179.904 138.488C178.752 137.784 177.808 136.856 177.072 135.704C176.368 134.552 176.016 133.08 176.016 131.288C176.016 129.368 176.528 127.624 177.552 126.056C178.608 124.456 180.176 123.192 182.256 122.264C184.368 121.304 187.008 120.824 190.176 120.824C192.288 120.824 194.368 121.08 196.416 121.592C198.464 122.072 200.272 122.808 201.84 123.8L199.44 129.704C197.872 128.808 196.304 128.152 194.736 127.736C193.168 127.288 191.632 127.064 190.128 127.064C188.624 127.064 187.392 127.24 186.432 127.592C185.472 127.944 184.784 128.408 184.368 128.984C183.952 129.528 183.744 130.168 183.744 130.904C183.744 131.768 184.096 132.472 184.8 133.016C185.504 133.528 186.432 133.944 187.584 134.264C188.736 134.584 190 134.904 191.376 135.224C192.784 135.544 194.176 135.912 195.552 136.328C196.96 136.744 198.24 137.304 199.392 138.008C200.544 138.712 201.472 139.64 202.176 140.792C202.912 141.944 203.28 143.4 203.28 145.16C203.28 147.048 202.752 148.776 201.696 150.344C200.64 151.912 199.056 153.176 196.944 154.136C194.864 155.096 192.224 155.576 189.024 155.576ZM220.353 155.384C217.601 155.384 215.153 154.808 213.009 153.656C210.897 152.504 209.217 150.936 207.969 148.952C206.753 146.936 206.145 144.648 206.145 142.088C206.145 139.496 206.753 137.208 207.969 135.224C209.217 133.208 210.897 131.64 213.009 130.52C215.153 129.368 217.601 128.792 220.353 128.792C223.073 128.792 225.505 129.368 227.649 130.52C229.793 131.64 231.473 133.192 232.689 135.176C233.905 137.16 234.513 139.464 234.513 142.088C234.513 144.648 233.905 146.936 232.689 148.952C231.473 150.936 229.793 152.504 227.649 153.656C225.505 154.808 223.073 155.384 220.353 155.384ZM220.353 149.24C221.601 149.24 222.721 148.952 223.713 148.376C224.705 147.8 225.489 146.984 226.065 145.928C226.641 144.84 226.929 143.56 226.929 142.088C226.929 140.584 226.641 139.304 226.065 138.248C225.489 137.192 224.705 136.376 223.713 135.8C222.721 135.224 221.601 134.936 220.353 134.936C219.105 134.936 217.985 135.224 216.993 135.8C216.001 136.376 215.201 137.192 214.593 138.248C214.017 139.304 213.729 140.584 213.729 142.088C213.729 143.56 214.017 144.84 214.593 145.928C215.201 146.984 216.001 147.8 216.993 148.376C217.985 148.952 219.105 149.24 220.353 149.24ZM239.519 155V119.384H247.007V155H239.519ZM264.852 155.384C262.708 155.384 260.788 154.968 259.092 154.136C257.428 153.304 256.132 152.04 255.204 150.344C254.276 148.616 253.812 146.424 253.812 143.768V129.176H261.3V142.664C261.3 144.808 261.748 146.392 262.644 147.416C263.572 148.408 264.868 148.904 266.532 148.904C267.684 148.904 268.708 148.664 269.604 148.184C270.5 147.672 271.204 146.904 271.716 145.88C272.228 144.824 272.484 143.512 272.484 141.944V129.176H279.972V155H272.868V147.896L274.164 149.96C273.3 151.752 272.02 153.112 270.324 154.04C268.66 154.936 266.836 155.384 264.852 155.384ZM297.469 155.384C294.429 155.384 292.061 154.616 290.365 153.08C288.669 151.512 287.821 149.192 287.821 146.12V123.464H295.309V146.024C295.309 147.112 295.597 147.96 296.173 148.568C296.749 149.144 297.533 149.432 298.525 149.432C299.709 149.432 300.717 149.112 301.549 148.472L303.565 153.752C302.797 154.296 301.869 154.712 300.781 155C299.725 155.256 298.621 155.384 297.469 155.384ZM283.837 135.512V129.752H301.741V135.512H283.837ZM307.769 155V129.176H315.257V155H307.769ZM311.513 125.576C310.137 125.576 309.017 125.176 308.153 124.376C307.289 123.576 306.857 122.584 306.857 121.4C306.857 120.216 307.289 119.224 308.153 118.424C309.017 117.624 310.137 117.224 311.513 117.224C312.889 117.224 314.009 117.608 314.873 118.376C315.737 119.112 316.169 120.072 316.169 121.256C316.169 122.504 315.737 123.544 314.873 124.376C314.041 125.176 312.921 125.576 311.513 125.576ZM334.494 155.384C331.742 155.384 329.294 154.808 327.15 153.656C325.038 152.504 323.358 150.936 322.11 148.952C320.894 146.936 320.286 144.648 320.286 142.088C320.286 139.496 320.894 137.208 322.11 135.224C323.358 133.208 325.038 131.64 327.15 130.52C329.294 129.368 331.742 128.792 334.494 128.792C337.214 128.792 339.646 129.368 341.79 130.52C343.934 131.64 345.614 133.192 346.83 135.176C348.046 137.16 348.654 139.464 348.654 142.088C348.654 144.648 348.046 146.936 346.83 148.952C345.614 150.936 343.934 152.504 341.79 153.656C339.646 154.808 337.214 155.384 334.494 155.384ZM334.494 149.24C335.742 149.24 336.862 148.952 337.854 148.376C338.846 147.8 339.63 146.984 340.206 145.928C340.782 144.84 341.07 143.56 341.07 142.088C341.07 140.584 340.782 139.304 340.206 138.248C339.63 137.192 338.846 136.376 337.854 135.8C336.862 135.224 335.742 134.936 334.494 134.936C333.246 134.936 332.126 135.224 331.134 135.8C330.142 136.376 329.342 137.192 328.734 138.248C328.158 139.304 327.87 140.584 327.87 142.088C327.87 143.56 328.158 144.84 328.734 145.928C329.342 146.984 330.142 147.8 331.134 148.376C332.126 148.952 333.246 149.24 334.494 149.24ZM369.355 128.792C371.403 128.792 373.227 129.208 374.827 130.04C376.459 130.84 377.739 132.088 378.667 133.784C379.595 135.448 380.059 137.592 380.059 140.216V155H372.571V141.368C372.571 139.288 372.107 137.752 371.179 136.76C370.283 135.768 369.003 135.272 367.339 135.272C366.155 135.272 365.083 135.528 364.123 136.04C363.195 136.52 362.459 137.272 361.915 138.296C361.403 139.32 361.147 140.632 361.147 142.232V155H353.659V129.176H360.811V136.328L359.467 134.168C360.395 132.44 361.723 131.112 363.451 130.184C365.179 129.256 367.147 128.792 369.355 128.792ZM395.535 155.384C393.327 155.384 391.199 155.128 389.151 154.616C387.135 154.072 385.535 153.4 384.351 152.6L386.847 147.224C388.031 147.96 389.423 148.568 391.023 149.048C392.655 149.496 394.255 149.72 395.823 149.72C397.551 149.72 398.767 149.512 399.471 149.096C400.207 148.68 400.575 148.104 400.575 147.368C400.575 146.76 400.287 146.312 399.711 146.024C399.167 145.704 398.431 145.464 397.503 145.304C396.575 145.144 395.551 144.984 394.431 144.824C393.343 144.664 392.239 144.456 391.119 144.2C389.999 143.912 388.975 143.496 388.047 142.952C387.119 142.408 386.367 141.672 385.791 140.744C385.247 139.816 384.975 138.616 384.975 137.144C384.975 135.512 385.439 134.072 386.367 132.824C387.327 131.576 388.703 130.6 390.495 129.896C392.287 129.16 394.431 128.792 396.927 128.792C398.687 128.792 400.479 128.984 402.303 129.368C404.127 129.752 405.647 130.312 406.863 131.048L404.367 136.376C403.119 135.64 401.855 135.144 400.575 134.888C399.327 134.6 398.111 134.456 396.927 134.456C395.263 134.456 394.047 134.68 393.279 135.128C392.511 135.576 392.127 136.152 392.127 136.856C392.127 137.496 392.399 137.976 392.943 138.296C393.519 138.616 394.271 138.872 395.199 139.064C396.127 139.256 397.135 139.432 398.223 139.592C399.343 139.72 400.463 139.928 401.583 140.216C402.703 140.504 403.711 140.92 404.607 141.464C405.535 141.976 406.287 142.696 406.863 143.624C407.439 144.52 407.727 145.704 407.727 147.176C407.727 148.776 407.247 150.2 406.287 151.448C405.327 152.664 403.935 153.624 402.111 154.328C400.319 155.032 398.127 155.384 395.535 155.384Z" fill="black"/>
<path d="M87.1509 39.0676L39.0677 87.1509C34.0885 92.1301 34.0885 100.203 39.0677 105.182L87.1509 153.265C92.1301 158.245 100.203 158.245 105.182 153.265L153.265 105.182C158.245 100.203 158.245 92.1301 153.265 87.1509L105.182 39.0676C100.203 34.0884 92.1301 34.0884 87.1509 39.0676Z" stroke="#886403" stroke-width="6" stroke-linejoin="round"/>
<path d="M93.1613 57.0989L57.0989 93.1613C55.4392 94.821 55.4392 97.512 57.0989 99.1717L93.1613 135.234C94.8211 136.894 97.512 136.894 99.1717 135.234L135.234 99.1717C136.894 97.512 136.894 94.821 135.234 93.1613L99.1717 57.0989C97.512 55.4391 94.8211 55.4391 93.1613 57.0989Z" stroke="#C3C3C3" stroke-width="9" stroke-linejoin="round"/>
<path d="M63.1093 63.1093L57.0989 57.0989M78.1353 48.0832L72.1249 42.0728M48.0833 78.1353L42.0729 72.1249M135.234 135.234L129.224 129.224M150.26 120.208L144.25 114.198M120.208 150.26L114.198 144.25M129.224 63.1093L135.234 57.0989M144.25 78.1353L150.26 72.1249M114.198 48.0832L120.208 42.0728M57.0989 135.234L63.1093 129.224M72.1249 150.26L78.1353 144.25M42.0729 120.208L48.0833 114.198" stroke="#886403" stroke-width="6" stroke-linecap="round" stroke-linejoin="round"/>
<rect x="47.0374" y="96.1314" width="69.4294" height="69.4294" rx="3" transform="rotate(-45 47.0374 96.1314)" fill="#886403"/>
<path d="M95.5312 95.2119L95.5566 95.2275L95.5479 95.2422L95.5566 95.2568L95.5312 95.2705L83.334 116.398L77.5596 113.065L87.8496 95.2422L77.5596 77.4189L83.333 74.085L95.5312 95.2119Z" fill="white"/>
<rect x="96" y="110" width="21" height="7" fill="white"/>
</svg>
